# xmcd CD database file
# Copyright (C) 1997 Ti Kan
# 
# Track frame offsets:
#     150
#     12203
#     24550
#     36615
#     52250
#     65345
#     82508
#     95643
#     119838
#     133098
# 
# Disc length: 2026 seconds
# 
# Revision: 1
# Processed by: cddbd v1.4b41PL1 Copyright (c) Steve Scherf et al.
# Submitted via: DiscPlay 4.0.4
# 
DISCID=8a07e80a
DTITLE=Will LeBlanc - Relentless Pursuit... 0r, You Can't Ignore Me Forever
DYEAR=1900
DGENRE=
TTITLE0=Let It Swing
TTITLE1=Deaux-De-Deaux
TTITLE2=The Letter Home
TTITLE3=Memory Lane
TTITLE4=I've Been Down This Road
TTITLE5=The Jury's Out
TTITLE6=I've Got A Job
TTITLE7=High Tide
TTITLE8=Another Cup Of Coffee
TTITLE9=Relentless Pursuit
EXTD=
EXTT0=
EXTT1=
EXTT2=
EXTT3=
EXTT4=
EXTT5=
EXTT6=
EXTT7=
EXTT8=
EXTT9=
PLAYORDER=
